<?xml version="1.0" encoding="UTF-8"?><svg id="Layer_2" xmlns="http://www.w3.org/2000/svg" viewBox="0 0 395.1 271.19"><defs><style>.cls-1{fill:#f9a61b;}.cls-1,.cls-2,.cls-3,.cls-4,.cls-5,.cls-6,.cls-7,.cls-8,.cls-9,.cls-10,.cls-11,.cls-12,.cls-13,.cls-14,.cls-15,.cls-16,.cls-17,.cls-18{stroke-width:0px;}.cls-2{fill:#f2788f;}.cls-3{fill:#161a41;}.cls-4{fill:#c27db4;}.cls-5{fill:#fdfcee;}.cls-6,.cls-10{fill:#5cbb5d;}.cls-7{fill:#c14d6c;}.cls-8{fill:#f2956a;}.cls-9{fill:#fdfcea;}.cls-10{opacity:.5;}.cls-19{stroke-width:1.26px;}.cls-19,.cls-20{fill:none;stroke:#151a41;stroke-linecap:round;stroke-linejoin:round;}.cls-11{fill:#fbfcf0;}.cls-12{fill:#802776;}.cls-13{fill:#161645;}.cls-14{fill:#ef5127;}.cls-15{fill:#ffd54a;}.cls-16{fill:#006548;}.cls-17{fill:#fff;}.cls-20{stroke-width:1.21px;}.cls-18{fill:#377bbf;}</style></defs><g id="Layer_1-2"><path class="cls-10" d="M44.82,265.29c-39.21-7.78-42.8-38.06-7.48-39.09,35.32-1.02,22.15-31.15-11.37-34.65s-34.87-76.82-2.39-87.65-.14-56.13,30.83-56.13,103.91,34.54,132.66,22.68,103.65-29.26,143.16-4.47c39.51,24.79,34.05,51.85,48.82,80.67,14.77,28.81,39.03,103.97-33.7,114.59-31.41,4.59-86.31,8.41-139.57,9.52-70.06,1.46-138.66-1.06-160.94-5.48Z"/><line class="cls-19" x1="49.16" y1="121.56" x2="49.16" y2="191.56"/><line class="cls-19" x1="72.81" y1="121.56" x2="72.81" y2="177.79"/><line class="cls-19" x1="104.84" y1="121.56" x2="104.84" y2="177.19"/><line class="cls-19" x1="89.36" y1="121.56" x2="89.36" y2="174.16"/><rect class="cls-17" x="47.52" y="118.98" width="57.77" height="3.74"/><path class="cls-17" d="M94.54,82.31l-3.47-1.42-6.14-21.33s-2.97-6.58-9.49-8.53-11.01-2.37-11.01-2.37c0,0,.15,2.67-4.64,4.32s-7.88,2.24-12.27,19.01c-4.39,16.76-5.09,16.91-3.44,18.86,0,0-.3,3.29.9,4.64s1.95,3.59,4.19,2.99,6.88-5.39,6.88-5.39l2.81,3.21h23.23v-3.21s2.1,2.99,9.13,2.54,6.29-3.89,6.29-3.89l-2.96-9.43Z"/><path class="cls-16" d="M54.85,95.93h26.79v7.48s26.34,7.03,28.88,10.33-19.21,47.64-19.21,47.64l-8.53-9.33,15.73-33.67h-37.46s-13.09-2.69-6.2-22.45Z"/><path class="cls-14" d="M56.05,93.09l13.77,15.71s2.42-2.24,5.63,0,5.59,4.94,5.59,4.94c0,0-1,3.14-3.27,2.99s-2.86-1.83-4.21-1.96-3.59.88-6.14,0-18.26-16.29-18.26-16.29l6.88-5.39Z"/><path class="cls-14" d="M94.54,82.31l12.37-4.24s3.01-1.75,6.16-3.32,4.61-4.27,5.37-3.67.48,2.1.48,2.1l-3.26,1.85s10.43,3.39,12.52,3.69c0,0,.59,2.69-4.65,3.59s-12.61.9-12.61.9l-13.43,8.53s-7.12-4.04-2.96-9.43Z"/><line class="cls-19" x1="72.96" y1="95.98" x2="72.06" y2="57.17"/><path class="cls-19" d="M82.16,91.74s1.8-23.35,2.39-27.54"/><polygon class="cls-6" points="70.86 55.67 69.22 83.51 72.81 88.15 75.44 84.86 72.81 55.67 70.86 55.67"/><polyline class="cls-19" points="79.24 53.05 74.76 58.74 72.06 55.27"/><polyline class="cls-19" points="72.06 55.27 67.87 59.71 61.06 52.23"/><path class="cls-19" d="M44.45,91.22s3.29-6.14,11.6-3.37l6.29-19.23"/><path class="cls-19" d="M44.82,94.66s5.84-4.19,11.22-1.57c0,0,1.65.82,1.35-2.54s-4-3.32-4-3.32"/><path class="cls-19" d="M90.24,80.74s-3.67,2.99-2.32,6.14,3.52,7.26,6.44,7.26"/><path class="cls-14" d="M66.56,40.85l-2.13,7.79,7.63,7.33,2.17-5.69v-6.21s1.87,1.05,3.07-.22,2.84-7.93.45-12.57-14.89-.67-13.32,4.34,2.13,5.23,2.13,5.23Z"/><path class="cls-3" d="M74.23,44.07s-3.92.57-5.71-3.67c0,0-2.1-.35-2.34-2.15s.6-3.54,2.59-1.4c0,0,2.64,3.54,2.29.05s-1.55-5.29-1.55-5.29c0,0,3.84.7,5.64.4s4.33-.9,4.09-3.69-1.99-5.19-5.58-2.29c0,0-3.34-.75-6.68.75s-5.79,3.99-4.79,7.98,2.89,7.03,3.84,7.73l.53-.85s4.78,6.73,7.67,8.63v-6.21Z"/><path class="cls-17" d="M138.29,227.03s4.27,5.09,7.26,5.69,7.41,2.99,7.41,4.34-.82,1.12-.82,1.12h-24.95l1.6-5.57,3.12-4.68,6.39-.9Z"/><line class="cls-19" x1="131.13" y1="196.7" x2="131.13" y2="235.69"/><line class="cls-19" x1="100.42" y1="196.7" x2="99.64" y2="238.19"/><rect class="cls-17" x="98.52" y="194.95" width="32.61" height="5.49"/><path class="cls-17" d="M132.77,226.01s4.27,5.09,7.26,5.69,7.41,2.99,7.41,4.34-.82,1.12-.82,1.12h-24.95l1.6-5.57,3.12-4.68,6.39-.9Z"/><path class="cls-17" d="M131.9,227.93l5.6-.9s5.05,5.09,8.05,5.69"/><path class="cls-3" d="M118.85,127.61l.49-6.07,5.69-8.4s.78.7.24-3.39-6.43-6.98-12.51-5.39-8.98,9.78-11.17,16.56-7.38,16.46-4.19,24.44c3.19,7.98,7.88,9.78,7.88,9.78l10.18-6.58,3.39-20.95Z"/><path class="cls-8" d="M133.22,165.82s2.69-1.4,3.99,0-.5,7.58-.5,7.58h-4.29l.8-7.58Z"/><path class="cls-8" d="M138.01,227.78l1.67-4.57-4.95-1.49-3.11,6.06.27.15c1.91,1.07,4.26,1.01,6.11-.15h0Z"/><path class="cls-14" d="M102.19,180.56s-3.69,8.71-2.39,12.05,10.48,6.24,33.22,5.54c0,0-2.84,12.11-4.58,19.75-.99,4.35-.94,4.16-.94,4.16,0,0,5.66,1.55,7.36.76,0,0,1.55-8.88,4.84-13.13s7.68-12.33,7.68-15.93-3.45-11.87-9.71-12.37-35.49-.82-35.49-.82Z"/><path class="cls-15" d="M135.79,139.18c-1.99.62-5.51.45-6.26.89-.75.44-.9,7.59-.9,7.59,0,0-2.54-4.29-3.44-9.38-.9-5.09-6.14-10-6.14-10,0,0,.9-4.07-9.88,1.17-10.78,5.24-10.66,13.92-10.66,13.92l4.22,31.02.19,4.3s12.68-4.79,23.16-4.34c10.48.45,12.27-3.29,12.27-3.29l-2.57-31.88ZM118.92,163.23c1.8-.2,5.02-8.52,5.02-8.52l2.1,7.84,4.29,2.18-11.41-1.5Z"/><path class="cls-17" d="M116.86,138.28c3.92,0,4.63-2.65,4.16-7.87-1.09-1.31-1.96-2.13-1.96-2.13,0,0,.83-3.77-8.73.63-.05.25-.1.52-.15.79,0,0,2.59,8.58,6.68,8.58Z"/><path class="cls-8" d="M113.77,127.61l2.69-1.77s2.39.17,2.39,1.77.5,4.19-1.3,3.99-3.79-3.99-3.79-3.99Z"/><path class="cls-8" d="M117.11,120.4s1.5-1.76,1.5-4,2.17-5.2,2.17-5.99.56-2.43.56-2.43c0,0,3.22,2.62,3.7,5.16s.19,6.02-.45,6.92-1.91,1.53-4.19,1.5-2.77-.04-3.03-.6l-.26-.56Z"/><path class="cls-8" d="M129.83,140.58s-1-6.58-2.1-7.88-1.21.1-2.45,0-2.54-2.89-1.14-4.49c0,0-1.3-2.74,1.7-2.37s5.19,2.09,6.58,5.77,2.69,8.97,2.69,8.97c0,0-3.49,1.6-5.29,0Z"/><path class="cls-19" d="M113.77,148.36l5.15,14.87s4.11-6.36,5.02-8.52"/><path class="cls-19" d="M112.27,171.96s-8.76-10.25-10.71-17.92"/><path class="cls-14" d="M139.68,223.21l-4.95-1.49,6.1-37.49s3.7-.07,6.4,2.39,3.37,18.26,1.57,20.58-9.12,16.01-9.12,16.01Z"/><path class="cls-8" d="M128.63,222.17l-2.39,4.64s4.22,1.13,5.66,1.13,2.97-5.12,2.97-5.12l-6.24-.64Z"/><polygon class="cls-18" points="172.62 182.34 172.28 185.87 151.75 185.87 162.23 180.91 172.62 182.34"/><polygon class="cls-3" points="151.75 185.87 151.75 187.15 172.62 187.15 172.28 185.87 151.75 185.87"/><polygon class="cls-3" points="220.17 185.87 220.17 187.15 199.29 187.15 199.63 185.87 220.17 185.87"/><polygon class="cls-18" points="199.29 182.34 199.63 185.87 220.17 185.87 209.69 180.91 199.29 182.34"/><path class="cls-8" d="M189.62,26.91l-.43-3.02-7.7-5.4-1.28-7.47-3.42,1.19,2.48,5.4s.43,4.93-.86,7.15l.49,6.45,11.4-1.2-.68-3.1Z"/><polygon class="cls-17" points="178.42 24.77 185.77 29.62 189.71 25.96 191.08 26.91 194.16 80.25 181.41 80.25 178.42 24.77"/><path class="cls-3" d="M167.81,80.25h35.72s-.27,20.22,1.15,42.6c1.7,26.76,5.14,56.57,5,58.06-.26,2.74-6.29,2.15-10.39,1.43l-12.32-79.04-14.44,79.95s-7.25.14-10.31-2.34c0,0,7.21-68.55,6.87-80.83-.35-12.28-1.29-19.83-1.29-19.83Z"/><path class="cls-8" d="M191.36,6.95s.56.24.56.81-.64,4.17-.64,4.17c0,0,.25,3.16.66,3.85s0,1.19,0,1.19l-6.72,1.55-3.68-3.34.34-8.25h9.47Z"/><path class="cls-6" d="M178.42,24.77s-7.6,5.73-11.72,7.83c-1.86.94-5.58,3.54-8.09,10.01-3.46,8.94-8.47,20.98-8.47,20.98,0,0-1.54,6.91,1.92,10.85,3.46,3.93,12.06,12.64,12.06,12.64l2.77-1.34c-.94,3.3-2.28,2.14-2.28,2.14l1.98,6.84s1,1.67,2.15,1.11l2.48-1.19,1.25-11.6s5.59,11.37,11.32,12.24l-5.39-70.5ZM160.54,66.69l5.29-10.85c.11.8.19,1.27.19,1.27,0,0,1.8,3.19,1.8,18.36,0,.4,0,.78,0,1.15l-7.27-9.93Z"/><path class="cls-8" d="M228.42,42.33s-.3-1.07.26-1.63,5.6-4.45,6.59-5.25.8-4.86-.79-5.73l1.83-.93c.33-.15.48-.51.34-.82-.21-.48-.58-1.08-1.07-1.06-.81.04-3.92,2.04-3.92,2.04l2.32-2.44c.14-.37.23-.74-.08-.99-.18-.15-.45-.21-.83,0-.94.52-4.56,1.58-4.56,1.58,0,0-2.33,1.38-3.83,3.92s-.93,3.19-2.17,5.1-2.18,3.26-2.18,3.26l8.08,2.94Z"/><path class="cls-8" d="M176.02,90.63l-2.14-3.55s-3.98,3.93-5.13,3.93l5,5.72s.74-3.36,2.02-4.46c.49-.42.58-1.11.25-1.66Z"/><path class="cls-5" d="M172.48,83.03s5.38,2.86-3.73,7.99c0,0-4.11-.48-4.62-3.93l8.35-4.05Z"/><path class="cls-6" d="M191.08,26.91l2.65,68.19s-.51,1.59,1.37,1.63h8.73l-.51-28.49s8.64,3.74,12.92-1.35,10.27-21.38,10.27-21.38l-8.47-3.18-7.27,13.11-7.87-17.8s-3.59-5.64-7.7-8.19l-4.11-2.54Z"/><path class="cls-3" d="M210.76,55.45l-7.1-16.06h0s-.34,28.85-.34,28.85c0,0,1.77.76,4.09,1.13-.47-2.38-1.02-8.27,3.35-13.92Z"/><path class="cls-13" d="M185.69,29.46l-1.88,2.3s.77.95.94,1.35-.17-.4-.17-.4l.17,34.81,2.31,2.94,2.14-2.86-1.2-34.34s.68-.32.26-1.35-2.57-2.46-2.57-2.46Z"/><path class="cls-3" d="M191.93,15.79l-.34.87s-3.94-.32-5.09.72c0,0-3.72.56-3.89-5.4s0-4.21,0-4.21l7.87-.24s4.79-1.43,1.97-6.28c0,0-1.88-2.3-3.25-.64s-2.05,1.83-2.05,1.83h-7.1s-5.3,1.31-4.71,6.26c.6,4.95,3.34,8.7,3.34,8.7,0,0,1.67.36.92-1.25l-1.86-1.99s-.56-1.33.71-1.79,1.54,1.01,1.54,1.01c0,0,.09,3.72.41,4.79.14.48.54,2.79,2.16,4.83,1.99,2.5,5.26,4.77,5.26,4.77l1.75-1.07-.11-2.64s3.4-.64,3.53-2.27-.19-4.05-.51-4.99-.53-1.01-.53-1.01Z"/><path class="cls-3" d="M196.64,11.84c-.23-1.37-1.49-2.39-2.98-2.54-.84-.09-1.74-.04-2.2.41-1.03,1.01-1.35,2.15-1.35,2.15,0,0-1.09-2.57-3.14-2.6-2.05-.03-3.46,2.02-3.53,2.22l-1.9.04.51.85h.81s1.35,3.32,2.69,3.6c1.35.28,2.87-.32,3.32-1.01.45-.7.77-2.19.77-2.19h.45s.56,1.63,1.2,2.32,3.59,1.47,4.62-.46c.6-1.12.88-1.92.73-2.8ZM186.61,14.69c-1.41-.16-1.92-1.33-1.92-2.29s.77-1.83,1.45-1.93c0,0,2.16-.08,2.1,1.31-.06,1.39-.21,3.06-1.63,2.9ZM194.93,13.28c-.41.89-.93,1.41-1.59,1.41s-1.9-1.09-1.53-2.8c0,0,.3-1.53,1.8-1.05,1.5.48,1.73,1.55,1.33,2.44Z"/><polygon class="cls-11" points="218.03 42.33 219.7 38.92 228.42 42.33 226.5 45.51 218.03 42.33"/><path class="cls-20" d="M174.06,28.31s.43,8.82,0,9.66,2.16,2.03,2.16,2.03l-2.21,2.86,6.81,26.52"/><path class="cls-20" d="M170.42,45.51l-8.73,21.18s-3.34-3.82-6.03-2.15"/><path class="cls-20" d="M177.42,79.09s-7.13-2.74-9.69-1.19"/><line class="cls-20" x1="174.01" y1="83.62" x2="166.6" y2="75.75"/><polyline class="cls-20" points="193.66 71.59 198.65 43.92 195.1 40.35 196.68 38.2 196.15 31.22"/><ellipse class="cls-20" cx="167.46" cy="87.24" rx="2.61" ry="2.42"/><path class="cls-20" d="M231.89,30.37s-.17.52-.42-.78c0,0-.1-.61.82-1.12"/><path class="cls-20" d="M229.91,33.31s.37.63,1.4.3,3.37-1.31,3.37-1.31"/><path class="cls-20" d="M234.48,29.72l-1.82.45s-1.65.74-2.41,1.38c-.34.29-.3,1.17-.33,1.48-.08.92.27,1.6.66,2.06s1.11.61,1.68.32l2.83-.88s-3.59.41-2.8,1.96c.21.41,1.66,0,1.66,0"/><path class="cls-20" d="M231.66,33.49s-1.74.46-1.08,1.6"/><polygon class="cls-3" points="296.55 168.22 296.55 169.31 307.1 158.64 303.73 159.34 296.55 168.22"/><polygon class="cls-14" points="289.93 145.02 298.35 157.74 296.55 168.22 307.02 156.62 292.73 139.26 289.93 145.02"/><polygon class="cls-18" points="291.54 147.44 275.71 123.5 284.43 128.86 296.15 144.07 291.54 147.44"/><line class="cls-19" x1="299.81" y1="117.18" x2="299.5" y2="140.08"/><line class="cls-19" x1="332.72" y1="117.47" x2="330.78" y2="168.2"/><line class="cls-19" x1="322.66" y1="117.48" x2="322.66" y2="161.03"/><line class="cls-19" x1="290.4" y1="146.67" x2="289.93" y2="174.05"/><line class="cls-19" x1="290.86" y1="119.43" x2="290.74" y2="126.61"/><path class="cls-14" d="M294.6,146.66l8.82,11.07s.9-.86,1.81-2.06,1.83-2.73,1.87-4.08c.07-2.69-7.86-11.52-7.86-11.52l-4.64,6.58Z"/><polygon class="cls-17" points="288.17 114.94 333.06 114.94 334.26 117.48 332.17 119.43 288.17 119.43 288.17 114.94"/><path class="cls-18" d="M326.3,91.64s2.57,11.52,1.48,15.11-5.14,8.68-16.54,8.48c-11.4-.2-27.16,0-27.16,0l15.98,25.77s-.95,1.82-2.26,3.21-3.04,2.39-3.19,2.44c-.3.1-21.6-26.54-21.6-26.54,0,0-6.39-10.38-3.69-16.16,2.69-5.79,16.76-7.38,16.76-7.38l20.95-.2v-12.87l12.35-1.5,6.93,9.63Z"/><polygon class="cls-3" points="307.74 92.19 300.29 90.69 300.29 87.55 283.08 87.55 276.34 101.77 277.4 106.86 287.12 106.86 293.26 105.66 309.12 94.73 307.74 92.19"/><polygon class="cls-17" points="285.17 110.15 301.64 100.57 275.6 75.69 255.84 83.51 285.17 110.15"/><path class="cls-3" d="M330.22,66s11.52,0,13.77-8.08c2.24-8.08,2.84-15.27-6.88-18.86s-6.73.75-14.67-10.63c-2.97-4.27-8.95-5.3-12.42-4.22-5.78,1.79-8.29,8.6-5.39,9.91,4.64,2.1,25.59,31.88,25.59,31.88Z"/><path class="cls-2" d="M307.02,83.51s-3.5-10.18-3.95-17.06c-.18-2.73.38-6.42,1.97-9.87,2.42-5.26,5.91-9.98,5.91-9.98l2.81-.5,6.36,3.22s7.51,3.17,9.35,9.05c3.07,9.8,0,25.89,0,25.89l-13.07-.9s-7.58,1.5-9.38.15Z"/><polygon class="cls-2" points="307.1 90.24 307.02 83.51 302.82 67.86 302.46 78.87 307.1 90.24"/><path class="cls-8" d="M316.38,86.13s-1.25,3.22-3.24,4.12-13.59,7.71-13.59,7.71c0,0-2.77.15-4.04.6s-2.02,2.24-3.37,2.24-3.52.6-3.97.37c0,0,.3,2.1,2.02,2.1s3.14.75,3.07,2.39c0,0,4.79-.75,7.78-2.54s20.2-9.5,20.2-9.5c0,0,2.24-.52,4.04-1.35s2.02-2.02,2.02-2.02c0,0-5.91-6.96-10.93-4.12Z"/><path class="cls-17" d="M320.12,49.31l-2.02-2.62-7.15-.1s-1.09.18-.94,2.72-.75,8.98-3.37,13.24c0,0-1.12,2.99,0,5.31s3.37,16.31,3.37,16.31h4.12l-3.3-16.61s1.88-4.71,3.3-8.46,5.98-9.8,5.98-9.8Z"/><path class="cls-8" d="M312.71,54.18l5.39-7.48-4.49-7.63s3.44-.75,1.8-3.14-2.69,0-2.69,0c0,0-1-.75-2.44-2.1s-3.79-4.14-3.79-4.14c0,0-1.85,3.14-1.85,4.44s-1.25,4.59,1.85,7.81c1.23,1.28,3.54.62,3.54.62l2.69,11.62Z"/><path class="cls-3" d="M314.13,39.96l-.09.11c-1.06,1.21-2.46,2.08-4.02,2.49h0s.94,4.04.94,4.04c.37-.26,3.32-2.5,3.18-6.63Z"/><path class="cls-17" d="M302.46,78.87l-3.22,2.02s0,2.17.82,3.89,2.39,5.46,2.39,5.46c0,0,4.49-.67,4.64,0,0,0-.9-7.63-4.64-11.37Z"/><line class="cls-19" x1="319.37" y1="63.46" x2="318.1" y2="80.97"/><path class="cls-8" d="M299.24,80.89s-1.8,1.72-4.86,2.1-6.21.52-6.21.52c0,0-2.69-1.27-4.49-2.54s-5.76-.07-5.76-.07c0,0-1.8,2.02,1.35,2.62s9.95,5.24,9.95,5.24h11.07v1.95l2.17-.45s-.37-9.05-3.22-9.35Z"/><line class="cls-19" x1="302.82" y1="67.86" x2="307.02" y2="83.51"/><path class="cls-17" d="M315.55,83.14l.82,2.99s2.84-1.05,5.54.45,5.39,3.67,5.39,3.67l2.47-3.55s-.15-4.68-5.31-5.72-6.36,0-6.36,0l-2.54,2.17Z"/><ellipse class="cls-6" cx="278.63" cy="92.1" rx="6.13" ry="10.09" transform="translate(28.14 244.99) rotate(-49.69)"/><ellipse class="cls-17" cx="278.63" cy="92.1" rx="3.99" ry="6.56" transform="translate(28.14 244.99) rotate(-49.69)"/><polygon class="cls-3" points="265.57 82.16 271.11 79.77 268.34 77.37 262.88 79.77 265.57 82.16"/><polygon class="cls-14" points="303.42 157.74 299.64 170.61 312.01 156.54 305.83 148.91 303.42 157.74"/><polyline class="cls-19" points="278.74 128.09 293.82 145.77 303.42 157.74 301.95 162.74"/><polygon class="cls-3" points="312.01 156.54 312.51 157.74 299.64 171.71 299.64 170.61 312.01 156.54"/><line class="cls-19" x1="301.64" y1="164.12" x2="297.49" y2="162.74"/><line class="cls-19" x1="303.42" y1="166.31" x2="301.08" y2="165.7"/><path class="cls-18" d="M360.86,161.06s2.57,11.52,1.48,15.11-3.39,8.68-14.79,8.48c-11.4-.2-24.89,1.22-24.89,1.22v27.54s-7.14,1.07-7.29,1.12c-.3.1-12.45-35.37-9.75-41.16s16.76-7.38,16.76-7.38l20.95-.2v-12.87l12.35-1.5,5.18,9.63Z"/><path class="cls-9" d="M341.6,126.31l-2.39-9.28s-2.24.9-4.34,0c-1.57-.67-1.84-5.18-1.84-5.18,0,0,.53-2.9.64-4.03.45-4.49,3.82-6.96,3.82-6.96l12.04,4.49s-2.1,10.03-1.35,12.72,1.35,4.94,1.35,4.94l-7.93,3.29Z"/><path class="cls-6" d="M341.45,125.71s-9.58,4.64-9.43,17.66c.07,5.8,3.72,14.77,7.76,22.94,5.03,10.18,11.47,8.71,11.47,8.71l8.62-2.62s6.94-16.63-2.86-44.45c-3.38-9.59-15.56-2.24-15.56-2.24Z"/><path class="cls-14" d="M342.74,113.14s1.9.1,2-1.6-1.1-2.49-2-1.6-2.49,3.34-2.59-.37l-.1-3.72s-4.29-1.1-4.19-4.09,6.78-5.19,10.68-2.39c0,0-1.6-10.28,6.58-8.28s5.19,9.08,3.59,10.28-5.89,1.5-5.89,1.5c0,0,1.9,1.3,1.9,3.79s-1.1,7.48-4.39,9.98-5.59-3.49-5.59-3.49Z"/><polyline class="cls-19" points="360.6 162.23 350.72 162.23 347.22 155.64 353.91 139.48"/><path class="cls-19" d="M345.34,130.9s-7.48,13.67-8.08,19.96"/><line class="cls-19" x1="333.36" y1="220.9" x2="333.36" y2="188.27"/><line class="cls-19" x1="358.58" y1="185.88" x2="357.01" y2="220.9"/><polygon class="cls-9" points="315.37 214.53 302.25 222.17 324.39 220.3 322.66 213.41 315.37 214.53"/><polygon class="cls-9" points="315.37 214.53 302.25 222.17 324.39 220.3 322.66 213.41 315.37 214.53"/><polyline class="cls-3" points="324.39 220.3 302.25 222.17 301.64 225.09 324.39 222.69"/><rect class="cls-3" x="292.73" y="184.9" width="3.82" height="62.73"/><rect class="cls-3" x="113.52" y="184.12" width="3.82" height="63.52"/><rect class="cls-3" x="181.25" y="184.12" width="3.82" height="54.07"/><rect class="cls-3" x="214.31" y="184.9" width="3.82" height="69.82"/><path class="cls-17" d="M301.47,173.27c4.33.25,8.62,1.05,12.72,2.49s8.32,3.65,7.95,6.45c-.75,5.61-97.95,6.06-112.99,6.06s-84.63,1.93-115.61-5.55c0,0-14.59-4.93,10.78-8.67,25.37-3.74,95.41-4.84,113.14-4.74,15.12.09,68.58,3.07,84.02,3.96Z"/><path class="cls-17" d="M286.68,164.94s1.95-1.85-1.05-2.59-7.33,0-7.33,0c0,0-1.65,1.05,0,2.99s8.38-.4,8.38-.4Z"/><path class="cls-17" d="M216.24,168.92s1.95-1.85-1.05-2.59-7.33,0-7.33,0c0,0-1.65,1.05,0,2.99s8.38-.4,8.38-.4Z"/><polygon class="cls-16" points="207.45 168.71 216.53 168.71 215.73 184.08 208.55 184.08 207.45 168.71"/><polygon class="cls-16" points="278.3 165.34 279 181.4 285.68 180.9 286.68 164.94 278.3 165.34"/><line class="cls-19" x1="363.15" y1="246.5" x2="363.39" y2="174.95"/><path class="cls-17" d="M363.15,183.58l-28.19-.6v-16.66h25.04s2.59-.3,3.14,3.99,0,13.27,0,13.27Z"/><line class="cls-19" x1="317.2" y1="203.53" x2="317.8" y2="242.75"/><path class="cls-8" d="M356.56,177.19s-5.39-22.75-12.57-29.33c-7.18-6.58-13.77-7.78-13.77-7.78l-9.73,2.07h0c-2.63,2.91-4.61,6.35-5.82,10.08l-3.37,10.45-7.88.75s-1.65,9.73,2.24,11.97c3.89,2.24,10.03,2.99,11.52,1.8s13.02-9.58,13.02-9.58l3.74,10.14s10.93,1.08,22.6-.57Z"/><line class="cls-19" x1="356.69" y1="183.58" x2="356.69" y2="238.16"/><line class="cls-19" x1="335.91" y1="247.63" x2="335.91" y2="202.14"/><path class="cls-12" d="M330.22,140.08l-6.88,7.78-5.54-10.78s-3.59,1.35-5.24-2.1-1.2-4.09-1.2-4.09c0,0-.15-3.54.75-5.78s3.59-5.24,7.18-5.39,8.38,1.8,8.53,6.44-1.65,7.93-.3,10.18,2.69,3.74,2.69,3.74Z"/><path class="cls-3" d="M327.53,136.34c-1.35-2.24.45-5.54.3-10.18-.15-4.64-4.94-6.58-8.53-6.44-2.3.1-4.23,1.36-5.56,2.84,2.3.78,3.38,3.97,4.16,5.34.8,1.4,1.1,2.69,1.9,1.4.8-1.3,2.99-.1,2.59,1.4-.4,1.5-1.5,2.39-1.5,2.39,2.04,3.02,5.9,3.35,6.72,3.39-.03-.05-.06-.1-.09-.14Z"/><path class="cls-3" d="M317.51,137.18c.18-.05.29-.09.29-.09l3.19,6.2,1.15-7.55-4.94.74.31.69Z"/><path class="cls-12" d="M311.31,162.68l-1.14-13.47s-.11-4.04,1.14-4.19c0,0-.39,2.39,1.25,1.35s2.69-4.19,2.69-4.19c0,0,1.46-1.73-1.51-2.66s-7.91-1.23-8.66,8.35-1.65,15.56-1.65,15.56c0,0,5.43.6,7.88-.75Z"/><path class="cls-3" d="M308.09,197.23l-20.82,39.53,8.08,3.59,26.79-41.51s-8.66-7.23-14.05-1.62Z"/><polygon class="cls-17" points="314.83 201.29 343.94 198.95 363.15 199.64 363.15 203.31 313.74 204.21 314.83 201.29"/><path class="cls-3" d="M333.96,177.76v4s-24.94,6.21-30.88,10.85,5.28,18.56,5.28,18.56l11.3,15.94s5.31-3.82,6.88-1.8-1.57-2.02-1.57-2.02l-10.16-22,29.46-.85s11.84-1.85,12.27-14.87c.3-9.05,0-8.38,0-8.38l-22.6.57Z"/><polygon class="cls-3" points="292.33 246.5 292.01 247.63 274.1 240.35 274.89 239.59 292.33 246.5"/><polygon class="cls-3" points="329.75 229.9 329.75 231.39 313.09 239.98 312.34 238.88 329.75 229.9"/><polygon class="cls-17" points="287.77 236.48 283.15 238.78 281.16 237.99 274.89 239.59 275.13 240.22 292.33 246.5 294.86 239.29 287.77 236.48"/><polygon class="cls-17" points="287.77 236.48 283.15 238.78 281.16 237.99 274.89 239.59 275.13 240.22 292.33 246.5 294.86 239.29 287.77 236.48"/><polygon class="cls-17" points="319.67 227.11 317.17 232.13 315.27 233.12 312.34 238.88 312.97 239.12 329.75 229.9 325.27 223.65 319.67 227.11"/><polygon class="cls-17" points="319.67 227.11 317.17 232.13 315.27 233.12 312.34 238.88 312.97 239.12 329.75 229.9 325.27 223.65 319.67 227.11"/><path class="cls-19" d="M337.85,155.49s-4.94,11.67-11.67,14.97"/><path class="cls-19" d="M320.49,155.49s-1.5-3.04-1.4-5.34"/><path class="cls-19" d="M312.21,165.82s-.9,1-1.1,3.79"/><path class="cls-19" d="M311.31,162.68l.5,3.34s10.88-13.37,14.57-17.26,9.68-5.59,9.68-5.59"/><polygon class="cls-3" points="257.49 246.5 257.49 248.28 241.96 256.63 240.06 255.91 240.06 253.97 257.49 246.5"/><path class="cls-18" d="M247.91,244.54s.3,2-1.65,3.09-5.67,4.39-6.2,6.34l.55,1.38s2.92-.04,5.03-1.38c4.21-2.69,11.85-7.47,11.85-7.47l-3.14-6.14-6.44,4.19Z"/><polygon class="cls-3" points="242.66 211.11 241.17 222.17 242.66 234.94 249.99 239.12 255.69 204.21 245.37 204.58 242.66 211.11"/><polygon class="cls-17" points="237.67 207.43 283.22 207.43 283.22 211.92 236.39 210.98 236.39 207.43 237.67 207.43"/><path class="cls-17" d="M230.55,168.22l-6.29-10.81s.07-.97.26-2.13.19-5.76-1.5-5.61c0,0-1.01-.19-1.05,1.27s.04,2.02,0,2.17-.34-1.83-.97-2.39-3.67-2.88-5.72-3.22-3.48-1.77-3.48-1.77c0,0-1.38.61-.9,1.77s2.02,5.46,2.36,6.32,2.13,2.88,2.88,3.59,2.47,1.12,2.69,2.28,4.53,11.82,5.05,15.3,6.66-6.77,6.66-6.77Z"/><path class="cls-17" d="M262.28,145.41s-2.69-6.39-2.69-11.62-13.62-11.22-13.62-11.22l-2.94,2.29s-4.9,4.29-2.1,6.98c1.24,1.19,2.1.6,2.1.6l.25,2.59s.65,1.95,3.39,2.15,3.33-.25,3.33-.25v8.78l12.28-.3Z"/><path class="cls-17" d="M250.5,195.1l-21.6,1.56s-11.92,1.2-6.49,13.17c5.44,11.97,25.49,34.72,25.49,34.72l6.44-4.19-17.96-29.37,1.28-3.56,32.39-.45s2.88-.3,5.18-10.33c2.3-10.03-24.74-1.56-24.74-1.56Z"/><path class="cls-18" d="M276.59,195.5c-.11.66-.68,1.15-1.35,1.15h-22.39s-2.99,0-2.99-4.04-5.39-16.76-5.39-16.76c0,0-4.94,8.68-9.28,9.28s-10.43,1.2-12.77-10.48c0,0,6.78-5.84,8.13-6.44l1.2.5s4.44-11.02,6.44-14.32,7.63-8.18,12.47-9.68,10.78-.8,10.78-.8c0,0,12.04,4.54,14.28,12.92,2.24,8.38,1.84,29.78,1.84,29.78,0,0-.52,6.15-.95,8.88Z"/><path class="cls-3" d="M259.73,136.48s-5.84,1.4-7.88-3.74l1.15-2s.9-2.44-2.15-2.24-1.85-3.69-1.85-3.69c0,0-4.29,1.25-5.54-3.49s2.99-6.49,2.99-6.49c0,0,1-.9,2.44.8s1.95,3.24,3.89,3.34,6.29-.55,8.08,2.89,2.29,5.84,1.3,7.93-2.79,4.43-2.44,6.68Z"/><path class="cls-3" d="M244.57,127.26s-.05-2.69-1.85-2.29c-1.8.4-2.15,2.64-1.85,3.94.3,1.3.55,2.79,1.95,2.74,1.4-.05,1.45-2.59,1.45-2.59h6.24v-1.5l-5.94-.3ZM243.03,130.34c-1.18.44-1.35-.88-1.3-2.33.02-.64.14-1.55.52-1.85.12-.09.25-.13.38-.14.4-.03.75.25.87.63.38,1.21.17,3.46-.46,3.69Z"/><path class="cls-17" d="M268.65,189.77h-8.47s-1.65-.15-1.2-6.14c.23-3.13.26-5.11.37-6.88.16-2.83,2.5-5.04,5.34-5.04h14.05s5.69-.17,5.69,6.4v11.66h-15.78Z"/><line class="cls-19" x1="283.22" y1="179.89" x2="283.22" y2="255.91"/><line class="cls-19" x1="260.01" y1="179.11" x2="260.01" y2="255.17"/><line class="cls-19" x1="234.09" y1="206.98" x2="236.39" y2="210.98"/><line class="cls-19" x1="270.06" y1="206.98" x2="234.59" y2="207.45"/><path class="cls-19" d="M252.1,160.23s-4.71,13.28-7.63,15.61"/><polyline class="cls-19" points="195.38 183.85 206.01 177.12 193.21 176.22"/><line class="cls-19" x1="194.41" y1="175.4" x2="191.34" y2="169.41"/><path class="cls-2" d="M188.79,175.47l3.67-2.62s0,.75.6.75,2.84-.82,4.79.56,1.35,3.63,1.35,5.57-3.82,4.12-3.82,4.12l-5.54.3-1.05-8.68Z"/><path class="cls-7" d="M144.5,196.65h21.78s4.04,1.5,4.04-11.3,0-8.75,0-8.75c0,0,2.54,8.13,7.86,9.75s11.67-2.19,11.67-2.19c0,0,1.95-4.64.37-7.78s-6.06-3.52-6.06-3.52c0,0-6.73-12.14-9.2-17.06-2.47-4.92-7.48-10.55-13.47-12.35s-15.86.37-15.86.37c0,0-8.61,3.37-9.2,9.05s-1.05,19.31,0,23.05,5.76,19.08,5.76,19.08c0,0-.07,1.65,2.32,1.65Z"/><path class="cls-2" d="M159.96,143.37s-9.28,1.4-11.37,0l1.7-6.68,2.69-10.48,6.29-3.39,4.19,1.1s2,4.19,2.1,6.39,0,5.19,0,5.19c0,0-1.26,2.27-4.96,1.47l-.63,6.41Z"/><polygon class="cls-2" points="163.05 241.25 161.26 244.54 167.69 246.79 170.24 241.25 163.05 241.25"/><polygon class="cls-3" points="158.51 250.48 157.97 251.84 171.14 254.34 171.81 252.88 158.51 250.48"/><path class="cls-17" d="M161.26,244.54l12.87,3.99s2.05,1.75,2.69,3.79,0,1.75,0,1.75l-18.31-3.59,2.74-5.94Z"/><path class="cls-3" d="M159.84,124.37s2.24.45,3.37-.37,4.04-2.24,3.44-5.76-1.87-3.44-1.87-3.44c0,0-.97,2.47-2.39,2.77s-6.06,1.27-8.53,1.27-6.66,2.69-6.21,7.93,3.14,10.1,3.14,10.1c0,0,3.82.67,6.96-4.64,0,0-2.92-.82-2.65-2.28.71-3.79,3.69-.19,3.69-.19,0,0,.97-.45.97-2.54s.07-2.84.07-2.84Z"/><polygon class="cls-2" points="175.03 242.3 172.78 246.79 178.92 247.83 180.41 242.3 175.03 242.3"/><path class="cls-3" d="M143.15,196.4s1.5,6.23,3.59,8.63,4.04,2.42,4.04,2.42l38.76-.47s-6.73,6.44-8.83,13.47-6.88,22.45-6.88,22.45l7.18,1.65s1.35-1.67,3.44-4.95c2.1-3.28,13.77-29.92,13.77-29.92,0,0,4.49-8.38-2.99-12.12-7.48-3.74-46.64-2.84-46.64-2.84l-5.44,1.7Z"/><line class="cls-19" x1="172.78" y1="205.63" x2="172.78" y2="249.03"/><path class="cls-17" d="M172.78,246.79l-2.19,6.44h20.1s-4.69-5.09-7.53-5.39-5.14-.75-5.14-.75l-5.24-.3Z"/><polygon class="cls-3" points="190.69 253.22 190.69 254.08 170.59 254.34 170.59 253.22 190.69 253.22"/><path class="cls-3" d="M183.56,207.05l-13.47,36.56-9.43-2.13s10.77-32.42,11.45-38.4,11.45,3.96,11.45,3.96Z"/><rect class="cls-17" x="136.71" y="207.45" width="49.09" height="4.47"/><path class="cls-17" d="M162.16,189.32v-10.63s.9-6.73-8.83-6.73h-12.27s-6.29.45-5.84,7.93,0,9.43,0,9.43h26.94Z"/><line class="cls-19" x1="162.16" y1="178.69" x2="162.16" y2="256.63"/><line class="cls-19" x1="136.71" y1="180.64" x2="136.71" y2="255.77"/><line class="cls-19" x1="185.8" y1="211.92" x2="185.8" y2="254.57"/><path class="cls-19" d="M145.39,143.76l-2.25,8.59s.45,7.03,6.51,4.19,10.3-13.17,10.3-13.17"/><path class="cls-19" d="M162.16,162.23s4.34,12.27,7.71,16.46"/><path class="cls-19" d="M183.56,171.96s3.82,7.53,2.25,11.02"/><path class="cls-3" d="M87.33,236.76l-3.97,4.45,2.39,2.54,2.99-2.84s.11,2.02,1.53,4.08,6.21,4,6.21,4c0,0,1.65.94.41-1.83s-2.1-2.62-2.1-2.62l-6.02-8.27-1.46.49Z"/><path class="cls-1" d="M94.11,127.71s.7-7.08-5.59-9.08-9.98-1.5-12.07,4.54-2,6.14-6.19,6.54-6.29,3.59-7.68,7.68-4.09,8.88,4.49,13.47,25.67,8.13,25.67,8.13c0,0-2.21-14.26,1.39-25.29.79-2.42-.02-5.99-.02-5.99Z"/><path class="cls-3" d="M120.85,239.3s.75,7.63,1.2,8.53h2.47l-.37-3.74,4.04,3.74,6.81-.45s.22-1.8-1.65-2.1-2.77,0-2.77,0l-8.38-7.11-1.35,1.12Z"/><path class="cls-4" d="M104.09,202.79l-16.76,33.97,7.48,7.78s-2.69-4.04-.3-7.18,16.01-25.44,16.01-25.44l-2.1-11.47-4.34,2.34Z"/><path class="cls-4" d="M102.74,199.64s.3.9,1.35,3.14,8.98,19.6,8.98,19.6l7.78,16.91s7.93,5.99,9.73,5.99c0,0-1.8-1.65-4.19-9.58-2.39-7.93-11.97-37.86-11.97-37.86,0,0-3.59-7.78-6.29-7.33s-5.39,9.13-5.39,9.13Z"/><path class="cls-4" d="M84.43,147.11s2.79-8.73,2.89-10.43c0,0,4.15.4,5.42,0s2.47-4.09,1.37-8.98-2.1-4.99-2.1-4.99c0,0,.4,1.2-.6,2.69s-3.59,3.39-3.99,4.19c0,0-.5-1.2-2.19-1.2s-3.39,2.1.4,3.89c0,0-.3,2.99-1,4.39s-2.79,4.99-4.79,5.39,1.6,5.59,1.6,5.59l2.99-.55Z"/><path class="cls-3" d="M102.76,202.35s1.87-.95,2.48-2.71,2.89-9.13,2.89-9.13c0,0-3.16-1.5-7.87-2.1s-1.56-.9-6.35-.9-8.08-.15-11.07-2.39-3.59-9.88-3.59-9.88h-21.1s-.45,14.37.6,17.36,3.29,7.69,7.63,8.56c4.34.87,36.39,1.18,36.39,1.18Z"/><path class="cls-4" d="M78.65,177.79l4.44-10.63s4.24,8.38,9.03,9.88,10.63,1.65,11.67-4.56-4.19-27.01-4.19-27.01c0,0-1.21-4.82-7.48-5.39-1.2-.11-1.9.65-1.9.65,0,0,.34,1.3,1.07,1.7,0,0-1.77,2-.47,3.19s2.89.85,3.84,1.35,1.2,17.51,1.2,17.51c0,0-3.14-5.79-4.79-8.13s-6.63-9.23-6.63-9.23l-4.59-5.04s-7.78-.1-10.48,4.59-10.33,24.29-10.58,26.24-.65,2.34-.65,2.34l20.5,2.54Z"/><path class="cls-12" d="M91.07,156.34c-1.65-2.34-6.63-9.23-6.63-9.23l-4.59-5.04s-7.78-.1-10.48,4.59c-2.69,4.69-10.33,24.29-10.58,26.24s-.65,2.34-.65,2.34l20.5,2.54,4.44-10.63s.94,1.85,2.42,3.97l7.23-12.15c-.61-1.02-1.2-1.97-1.67-2.65Z"/><path class="cls-19" d="M83.59,169s-7.63-7.45-8.46-12.91"/><line class="cls-19" x1="75.36" y1="205.39" x2="75.36" y2="240.43"/><path class="cls-17" d="M78.55,189.16v-10.05c0-4.69-3.81-8.5-8.5-8.5h-7.14c-4.69,0-8.5,3.81-8.5,8.5v10.21l24.14-.16Z"/><polygon class="cls-17" points="54.4 201.17 105.73 201.17 105.73 205.03 54.4 205.63 54.4 201.17"/><line class="cls-19" x1="102.89" y1="202.49" x2="102.89" y2="249.93"/><line class="cls-19" x1="78.55" y1="183.03" x2="78.55" y2="249.93"/><line class="cls-19" x1="54.85" y1="180.56" x2="54.85" y2="250.45"/></g></svg>