<?xml version="1.0" encoding="UTF-8"?>
<svg id="Layer_1" data-name="Layer 1" xmlns="http://www.w3.org/2000/svg" version="1.1" viewBox="0 0 54 54">
  <defs>
    <style>
      .cls-1 {
        fill: #fff;
        stroke-width: 0px;
      }
    </style>
  </defs>
  <path class="cls-1" d="M38.4,24.4h0c0-5.8,4.7-10.5,10.5-10.5v-.9c-5.8,0-10.5-4.7-10.5-10.5h0V0h-.9v2.6h0c0,5.8-4.7,10.5-10.5,10.5s-10.5-4.7-10.5-10.5h0V0h-.9v2.6h0c0,5.8-4.7,10.5-10.5,10.5v.9c5.8,0,10.5,4.7,10.5,10.5h0v5.2h0c0,5.8-4.7,10.5-10.5,10.5v.9c5.8,0,10.5,4.7,10.5,10.5h0v2.6h.9v-2.6h0c0-2.8,1.1-5.4,3-7.4,2-2,4.6-3.1,7.4-3.1,5.8,0,10.5,4.7,10.5,10.5h0v2.6h.9v-2.6h0c0-5.8,4.7-10.5,10.5-10.5v-.9c-5.8,0-10.5-4.7-10.5-10.5h0v-5.2h0ZM37.5,29.6h0c0,5.8-4.7,10.5-10.5,10.5s-10.5-4.7-10.5-10.5h0v-5.2h0c0-2.8,1.1-5.4,3-7.4,2-2,4.6-3.1,7.4-3.1,5.8,0,10.5,4.7,10.5,10.5h0v5.2h0Z"/>
</svg>