<?xml version="1.0" encoding="UTF-8"?>
<svg id="Layer_2" data-name="Layer 2" xmlns="http://www.w3.org/2000/svg" version="1.1" viewBox="0 0 260 100">
  <defs>
    <style>
      .cls-1 {
        fill: #fff;
        stroke-width: 0px;
      }
    </style>
  </defs>
  <g id="Layer_1-2" data-name="Layer 1-2">
    <path class="cls-1" d="M136.4,44.2c0-1-.4-1.8-1.2-2.3-.8-.6-2.1-1-3.8-1.2l-4.7-.7c-3.6-.5-6.2-1.5-7.8-2.7s-2.4-3-2.4-5.3,1.1-4.3,3.3-5.7,5.3-2,9.2-2,6.3.6,8.3,1.8c2,1.2,3.2,3,3.9,5.6l-5.2.7c-.6-1.4-1.4-2.3-2.4-2.9s-2.6-.9-4.6-.9-3.9.3-5.1.9c-1.2.6-1.8,1.4-1.8,2.5s.4,1.8,1.1,2.2c.8.5,2.1.9,4,1.2l5.4.8c3.2.5,5.6,1.3,7.1,2.6s2.2,3.1,2.2,5.4-1.1,4.6-3.2,6-5.2,2.1-9.3,2.1c-8.4,0-12.9-2.9-13.6-8.8h5.6c.3,1.5,1.1,2.7,2.4,3.4s3.2,1.1,5.6,1.1,4-.3,5.2-1,1.8-1.6,1.8-2.8h0Z"/>
    <path class="cls-1" d="M176.9,24.9h5.5v22h16.5l-.7,4.6h-21.3v-26.6h0Z"/>
    <path class="cls-1" d="M233,24.9h5.5v12l13.9-12h6.5l-11.6,10.2,12.7,16.4h-6.4l-10.1-13.2-4.9,4.2v9h-5.5v-26.6h0Z"/>
    <path class="cls-1" d="M115.3,71.8c0-.8.2-1.5.5-2.1.3-.6.8-1.1,1.4-1.4.6-.3,1.3-.5,2.1-.5,2,0,3.2.8,3.7,2.5l-1,.2c-.2-.6-.5-1-.9-1.3-.4-.3-1-.4-1.7-.4s-1.1.1-1.6.4-.8.6-1,1.1-.4,1-.4,1.6.1,1.2.4,1.6.6.8,1,1.1c.4.2,1,.4,1.6.4s1.4-.1,1.8-.4.7-.7.9-1.3h1.1c-.2.9-.5,1.5-1.2,2-.6.5-1.5.7-2.6.7s-1.6-.2-2.2-.5c-.6-.3-1.1-.8-1.4-1.4s-.5-1.3-.5-2.1h0Z"/>
    <path class="cls-1" d="M125.8,75.6h-1.1l3.7-7.6h1.1l3.7,7.6h-1.2l-1-2.1h-4.1l-1,2.1h0ZM128.8,69.2l-1.7,3.5h3.3l-1.7-3.5Z"/>
    <path class="cls-1" d="M136.3,69h-3.1v-.9h7.3v.9h-3.1v6.6h-1.1v-6.6h0Z"/>
    <path class="cls-1" d="M141.8,75.6h-1.1l3.7-7.6h1.1l3.7,7.6h-1.2l-1-2.1h-4.1l-1,2.1h0ZM144.9,69.2l-1.7,3.5h3.3l-1.7-3.5Z"/>
    <path class="cls-1" d="M151.4,68.1h1.1v6.6h4.9l-.2.9h-5.8v-7.6Z"/>
    <path class="cls-1" d="M160.6,72.4l-3.2-4.4h1.3l2.5,3.5,2.5-3.5h1.2l-3.2,4.4v3.2h-1.1v-3.2h0Z"/>
    <path class="cls-1" d="M172.7,73.6c0-.3-.1-.6-.4-.8-.3-.2-.7-.3-1.3-.4l-1.3-.2c-.7,0-1.2-.2-1.6-.4-.4-.2-.7-.4-.9-.7-.2-.3-.3-.7-.3-1.1,0-.7.3-1.2.9-1.5.6-.4,1.4-.6,2.5-.6s1.7.2,2.2.5c.5.3.9.8,1.1,1.5l-1,.2c-.2-.4-.4-.8-.8-.9s-.9-.3-1.5-.3-1.3,0-1.7.3c-.4.2-.6.5-.6.8s.1.6.4.8c.3.2.8.3,1.4.4l1.5.2c.9.1,1.5.4,1.9.7.4.4.6.9.6,1.5s-.3,1.2-.9,1.6-1.4.6-2.5.6c-2.3,0-3.6-.8-3.8-2.4h1.1c.1.5.4.9.8,1.1.4.2,1.1.4,1.9.4s1.3-.1,1.7-.3.6-.5.6-.9h0Z"/>
    <path class="cls-1" d="M178.7,69h-3.1v-.9h7.3v.9h-3.1v6.6h-1.1v-6.6h0Z"/>
    <path class="cls-1" d="M189.1,68.1h3.6c2,0,2.9.8,2.9,2.3s-1,2.4-3.1,2.4h-2.4v2.8h-1.1v-7.6ZM194.5,70.4c0-.5-.1-.8-.5-1.1s-.8-.3-1.5-.3h-2.5v2.9h2.4c.7,0,1.1-.1,1.5-.4.3-.2.5-.6.5-1.1h0Z"/>
    <path class="cls-1" d="M197.4,75.6h-1.1l3.7-7.6h1.1l3.7,7.6h-1.2l-1-2.1h-4.1l-1,2.1h0ZM200.5,69.2l-1.7,3.5h3.3l-1.7-3.5Z"/>
    <path class="cls-1" d="M206.9,68.1h3.5c1.9,0,2.9.8,2.9,2.3s-.5,1.7-1.5,2l1.9,3.3h-1.2l-1.8-3.1c0,0-.1,0-.2,0h-2.7v3.1h-1v-7.6h0ZM212.3,70.3c0-.5-.1-.8-.4-1s-.8-.3-1.5-.3h-2.4v2.7h2.4c1.3,0,1.9-.4,1.9-1.3h0Z"/>
    <path class="cls-1" d="M218.2,69h-3.1v-.9h7.3v.9h-3.1v6.6h-1.1v-6.6h0Z"/>
    <path class="cls-1" d="M224.6,68.1h1l5,6.1v-6.1h1v7.6h-1l-5-6.1v6.1h-1v-7.6Z"/>
    <path class="cls-1" d="M234.8,68.1h6v.9h-5v2.3h4.7v.9h-4.7v2.5h5.2l-.2.9h-6.1s0-7.6,0-7.6Z"/>
    <path class="cls-1" d="M243.6,68.1h3.5c1.9,0,2.9.8,2.9,2.3s-.5,1.7-1.5,2l1.9,3.3h-1.2l-1.8-3.1c0,0-.1,0-.2,0h-2.7v3.1h-1v-7.6h0ZM249,70.3c0-.5-.1-.8-.4-1s-.8-.3-1.5-.3h-2.4v2.7h2.4c1.3,0,1.9-.4,1.9-1.3h0Z"/>
    <path class="cls-1" d="M258.3,73.6c0-.3-.1-.6-.4-.8-.3-.2-.7-.3-1.3-.4l-1.3-.2c-.7,0-1.2-.2-1.6-.4-.4-.2-.7-.4-.9-.7-.2-.3-.3-.7-.3-1.1,0-.7.3-1.2.9-1.5.6-.4,1.4-.6,2.5-.6s1.7.2,2.2.5.9.8,1.1,1.5l-1,.2c-.2-.4-.5-.8-.8-.9s-.9-.3-1.5-.3-1.3,0-1.7.3c-.4.2-.6.5-.6.8s.1.6.4.8c.3.2.8.3,1.4.4l1.5.2c.9.1,1.5.4,1.9.7.4.4.6.9.6,1.5s-.3,1.2-.9,1.6-1.4.6-2.5.6c-2.3,0-3.6-.8-3.8-2.4h1.1c.1.5.4.9.8,1.1.4.2,1.1.4,1.9.4s1.3-.1,1.7-.3.6-.5.6-.9h0Z"/>
    <path class="cls-1" d="M61.5,45.2h0c0-10.7,8.7-19.4,19.4-19.4v-1.7c-10.7,0-19.3-8.7-19.3-19.4h0V0h-1.7v4.8h0c0,10.7-8.7,19.4-19.4,19.4S21.1,15.4,21.1,4.8h0V0h-1.7v4.8h0c0,10.7-8.7,19.4-19.4,19.4v1.7c10.7,0,19.4,8.7,19.4,19.4h0v9.5h0c0,10.7-8.7,19.4-19.4,19.4v1.7c10.7,0,19.4,8.7,19.4,19.3h0v4.8h1.7v-4.8h0c0-5.2,2-10,5.6-13.7,3.6-3.7,8.5-5.7,13.7-5.7,10.7,0,19.4,8.7,19.4,19.3h0v4.8h1.7v-4.8h0c0-10.7,8.7-19.3,19.4-19.3v-1.7c-10.7,0-19.3-8.7-19.3-19.3h0v-9.5h0ZM59.8,54.8h0c0,10.7-8.7,19.3-19.4,19.3s-19.4-8.7-19.4-19.3h0v-9.5h0c0-5.2,2-10,5.6-13.7,3.6-3.6,8.5-5.7,13.7-5.7,10.7,0,19.4,8.7,19.4,19.4h0v9.5h0Z"/>
  </g>
</svg>