<?xml version="1.0" encoding="UTF-8"?><svg id="Layer_2" xmlns="http://www.w3.org/2000/svg" viewBox="0 0 259.98 100"><defs><style>.cls-1{fill:#5dbc5b;}.cls-1,.cls-2{stroke-width:0px;}.cls-2{fill:#006548;}</style></defs><g id="Layer_1-2"><path class="cls-2" d="M136.44,24.96c0-.99-.39-1.77-1.17-2.33-.78-.56-2.06-.96-3.82-1.21l-4.66-.71c-3.63-.55-6.23-1.45-7.82-2.7-1.59-1.25-2.38-3.02-2.38-5.31,0-2.43,1.11-4.33,3.33-5.68,2.22-1.35,5.28-2.03,9.18-2.03,3.58,0,6.34.59,8.31,1.77,1.96,1.18,3.25,3.05,3.87,5.61l-5.25.67c-.55-1.37-1.36-2.34-2.44-2.92-1.08-.58-2.61-.87-4.6-.87-2.21,0-3.92.29-5.12.86-1.2.57-1.81,1.39-1.81,2.46,0,.99.38,1.75,1.14,2.25.76.51,2.09.91,4,1.21l5.4.82c3.25.47,5.62,1.35,7.11,2.64,1.49,1.29,2.23,3.08,2.23,5.36,0,2.58-1.08,4.58-3.24,5.98-2.16,1.4-5.25,2.11-9.27,2.11-8.42,0-12.94-2.93-13.56-8.79h5.55c.3,1.54,1.1,2.68,2.42,3.43s3.18,1.12,5.59,1.12c2.28,0,4.02-.32,5.21-.97,1.19-.65,1.79-1.56,1.79-2.76Z"/><path class="cls-2" d="M176.92,5.67h5.51v21.98h16.46l-.71,4.62h-21.27V5.67Z"/><path class="cls-2" d="M232.98,5.67h5.51v11.99l13.86-11.99h6.52l-11.55,10.17,12.66,16.43h-6.44l-10.09-13.15-4.95,4.17v8.98h-5.51V5.67Z"/><path class="cls-1" d="M115.26,56.59c0-1.7.36-3.18,1.07-4.44.71-1.26,1.72-2.25,3.01-2.95,1.29-.71,2.8-1.06,4.53-1.06,4.23,0,6.83,1.77,7.83,5.3l-2.19.34c-.47-1.29-1.14-2.22-2.02-2.8-.88-.57-2.09-.86-3.62-.86-1.29,0-2.41.26-3.35.79s-1.67,1.27-2.18,2.24-.77,2.12-.77,3.44.26,2.49.77,3.46,1.24,1.71,2.2,2.23c.95.52,2.08.78,3.39.78,1.66,0,2.94-.3,3.87-.9.93-.6,1.54-1.54,1.84-2.82h2.3c-.32,1.85-1.16,3.26-2.53,4.24-1.37.98-3.19,1.47-5.48,1.47-1.77,0-3.31-.35-4.61-1.04-1.3-.69-2.3-1.67-3.01-2.94s-1.06-2.76-1.06-4.48Z"/><path class="cls-1" d="M137.61,64.64h-2.39l7.8-16.1h2.3l7.8,16.1h-2.48l-2.12-4.44h-8.82l-2.1,4.44ZM144.13,50.93l-3.56,7.42h7.13l-3.56-7.42Z"/><path class="cls-1" d="M160.14,50.5h-6.68v-1.96h15.58v1.96h-6.68v14.14h-2.23v-14.14Z"/><path class="cls-1" d="M171.89,64.64h-2.39l7.8-16.1h2.3l7.8,16.1h-2.48l-2.12-4.44h-8.82l-2.1,4.44ZM178.41,50.93l-3.56,7.42h7.13l-3.56-7.42Z"/><path class="cls-1" d="M192.19,48.54h2.23v14.14h10.55l-.38,1.96h-12.4v-16.1Z"/><path class="cls-1" d="M211.95,57.87l-6.92-9.34h2.68l5.41,7.42,5.41-7.42h2.57l-6.93,9.34v6.77h-2.23v-6.77Z"/><path class="cls-1" d="M237.73,60.35c0-.75-.29-1.34-.87-1.76-.58-.42-1.51-.72-2.78-.9l-2.8-.41c-1.44-.21-2.6-.51-3.48-.89-.88-.38-1.52-.88-1.92-1.5-.4-.62-.6-1.38-.6-2.3,0-1.4.64-2.49,1.92-3.28,1.28-.79,3.05-1.18,5.32-1.18,2.06,0,3.64.33,4.76.99,1.11.66,1.9,1.73,2.37,3.2l-2.14.38c-.38-.93-.95-1.6-1.73-2.01-.77-.41-1.86-.61-3.26-.61-1.59,0-2.82.21-3.69.63-.87.42-1.3,1.02-1.3,1.8s.29,1.35.87,1.74c.58.39,1.59.69,3.03.9l3.11.45c1.87.27,3.24.8,4.14,1.58.9.78,1.34,1.84,1.34,3.18,0,1.46-.63,2.6-1.89,3.43s-3.02,1.24-5.28,1.24c-4.96,0-7.63-1.7-8.01-5.1h2.3c.21,1.07.78,1.86,1.71,2.37.93.51,2.26.77,3.99.77,1.57,0,2.77-.24,3.61-.71.84-.47,1.26-1.15,1.26-2.02Z"/><path class="cls-1" d="M250.36,50.5h-6.67v-1.96h15.58v1.96h-6.67v14.14h-2.23v-14.14Z"/><path class="cls-1" d="M114.99,79.08h7.35c4.03,0,6.05,1.61,6.05,4.83s-2.1,4.89-6.31,4.89h-4.94v5.81h-2.15v-15.53ZM126.15,83.86c0-1-.31-1.73-.94-2.2s-1.64-.7-3.01-.7h-5.05v5.94h5c1.36,0,2.37-.25,3.02-.75.65-.5.98-1.26.98-2.29Z"/><path class="cls-1" d="M132.06,94.61h-2.31l7.53-15.53h2.22l7.53,15.53h-2.39l-2.05-4.28h-8.5l-2.02,4.28ZM138.35,81.38l-3.44,7.16h6.87l-3.43-7.16Z"/><path class="cls-1" d="M151.64,79.08h7.24c4,0,6,1.55,6,4.65,0,2.12-1.02,3.5-3.07,4.16l3.89,6.72h-2.48l-3.59-6.29c-.12.01-.25.02-.4.02h-5.49v6.26h-2.11v-15.53ZM162.64,83.69c0-.96-.31-1.65-.93-2.08-.62-.43-1.61-.64-2.99-.64h-4.98v5.48h4.94c2.64,0,3.96-.92,3.96-2.76Z"/><path class="cls-1" d="M174.82,80.97h-6.44v-1.89h15.03v1.89h-6.44v13.64h-2.15v-13.64Z"/><path class="cls-1" d="M187.98,79.08h2.09l10.33,12.48v-12.48h2.11v15.53h-2.09l-10.33-12.48v12.48h-2.11v-15.53Z"/><path class="cls-1" d="M208.86,79.08h12.35v1.89h-10.2v4.68h9.7v1.89h-9.7v5.18h10.66l-.37,1.89h-12.44v-15.53Z"/><path class="cls-1" d="M226.98,79.08h7.24c4,0,6,1.55,6,4.65,0,2.12-1.02,3.5-3.07,4.16l3.89,6.72h-2.48l-3.59-6.29c-.12.01-.25.02-.4.02h-5.49v6.26h-2.11v-15.53ZM237.99,83.69c0-.96-.31-1.65-.93-2.08-.62-.43-1.61-.64-2.99-.64h-4.98v5.48h4.94c2.64,0,3.96-.92,3.96-2.76Z"/><path class="cls-1" d="M257.15,90.48c0-.72-.28-1.29-.84-1.7-.56-.4-1.45-.7-2.69-.87l-2.7-.39c-1.39-.2-2.51-.49-3.36-.86-.85-.37-1.46-.85-1.85-1.45-.38-.59-.58-1.33-.58-2.22,0-1.35.62-2.4,1.85-3.16,1.23-.76,2.94-1.14,5.13-1.14,1.99,0,3.51.32,4.59.96,1.07.64,1.83,1.67,2.28,3.09l-2.07.37c-.36-.9-.92-1.54-1.66-1.93-.75-.39-1.8-.59-3.14-.59-1.54,0-2.72.2-3.56.61-.83.4-1.25.99-1.25,1.74s.28,1.3.84,1.67c.56.38,1.53.67,2.93.87l3,.44c1.8.26,3.13.77,3.99,1.52.86.75,1.29,1.78,1.29,3.07,0,1.41-.61,2.51-1.83,3.31-1.22.8-2.91,1.2-5.09,1.2-4.78,0-7.36-1.64-7.72-4.92h2.22c.2,1.03.75,1.79,1.65,2.28.9.49,2.18.74,3.85.74,1.51,0,2.67-.23,3.48-.68.81-.46,1.22-1.11,1.22-1.95Z"/><path class="cls-1" d="M61.55,45.23h0c0-10.67,8.68-19.35,19.35-19.35v-1.74c-10.67,0-19.35-8.68-19.35-19.35h0V0h-1.74v4.77h0c0,10.67-8.68,19.35-19.35,19.35-10.67,0-19.35-8.68-19.35-19.35h0V0s-1.74,0-1.74,0v4.77h0C19.35,15.45,10.67,24.13,0,24.13v1.74c10.67,0,19.35,8.68,19.35,19.35h0v9.55s0,0,0,0c0,10.67-8.68,19.35-19.35,19.35v1.74c10.67,0,19.35,8.68,19.35,19.35h0v4.77h1.74s0-4.77,0-4.77h0c0-5.18,2-10.04,5.63-13.69,3.64-3.65,8.52-5.67,13.73-5.67,10.67,0,19.35,8.68,19.35,19.35h0v4.77h1.74v-4.77h0c0-10.67,8.68-19.35,19.35-19.35v-1.74c-10.67,0-19.35-8.68-19.35-19.35h0v-9.55ZM59.8,54.78h0c0,10.67-8.68,19.35-19.35,19.35-10.67,0-19.35-8.68-19.35-19.35h0v-9.55s0,0,0,0c0-5.18,2-10.04,5.63-13.69,3.64-3.65,8.52-5.67,13.73-5.67,10.67,0,19.35,8.68,19.35,19.35h0v9.55Z"/></g></svg>