<?xml version="1.0" encoding="UTF-8"?>
<svg id="Layer_1" data-name="Layer 1" xmlns="http://www.w3.org/2000/svg" version="1.1" viewBox="0 0 240 64">
  <defs>
    <style>
      .cls-1 {
        fill: #006548;
      }

      .cls-1, .cls-2 {
        stroke-width: 0px;
      }

      .cls-2 {
        fill: #5dbb5b;
      }
    </style>
  </defs>
  <g>
    <g>
      <path class="cls-1" d="M87.3,28.3c0-.6-.3-1.1-.8-1.5-.5-.4-1.3-.6-2.4-.8l-3-.5c-2.3-.3-4-.9-5-1.7-1-.8-1.5-1.9-1.5-3.4s.7-2.8,2.1-3.6c1.4-.9,3.4-1.3,5.9-1.3s4.1.4,5.3,1.1c1.3.8,2.1,2,2.5,3.6l-3.4.4c-.3-.9-.9-1.5-1.6-1.9-.7-.4-1.7-.6-2.9-.6s-2.5.2-3.3.5c-.8.4-1.2.9-1.2,1.6s.2,1.1.7,1.4c.5.3,1.3.6,2.6.8l3.5.5c2.1.3,3.6.9,4.6,1.7,1,.8,1.4,2,1.4,3.4s-.7,2.9-2.1,3.8c-1.4.9-3.4,1.3-5.9,1.3-5.4,0-8.3-1.9-8.7-5.6h3.6c.2,1,.7,1.7,1.5,2.2s2,.7,3.6.7,2.6-.2,3.3-.6c.8-.4,1.1-1,1.1-1.8Z"/>
      <path class="cls-1" d="M113.2,15.9h3.5v14.1h10.5l-.5,3h-13.6V15.9Z"/>
      <path class="cls-1" d="M149.1,15.9h3.5v7.7l8.9-7.7h4.2l-7.4,6.5,8.1,10.5h-4.1l-6.5-8.4-3.2,2.7v5.7h-3.5V15.9Z"/>
    </g>
    <g>
      <path class="cls-1" d="M73.8,46c0-.5.1-1,.3-1.3.2-.4.5-.7.9-.9.4-.2.8-.3,1.4-.3,1.3,0,2.1.5,2.4,1.6h-.7c-.1-.3-.3-.6-.6-.7-.3-.2-.6-.3-1.1-.3s-.7,0-1,.2-.5.4-.7.7-.2.6-.2,1,0,.7.2,1,.4.5.7.7c.3.2.6.2,1,.2s.9,0,1.2-.3.5-.5.6-.8h.7c0,.6-.3,1-.8,1.3-.4.3-1,.4-1.6.4s-1-.1-1.4-.3c-.4-.2-.7-.5-.9-.9s-.3-.8-.3-1.3Z"/>
      <path class="cls-1" d="M80.5,48.4h-.7l2.3-4.8h.7l2.3,4.8h-.7l-.6-1.3h-2.6l-.6,1.3ZM82.4,44.3l-1.1,2.2h2.1l-1.1-2.2Z"/>
      <path class="cls-1" d="M87.2,44.1h-2v-.6h4.7v.6h-2v4.2h-.7v-4.2Z"/>
      <path class="cls-1" d="M90.8,48.4h-.7l2.3-4.8h.7l2.3,4.8h-.7l-.6-1.3h-2.6l-.6,1.3ZM92.7,44.3l-1.1,2.2h2.1l-1.1-2.2Z"/>
      <path class="cls-1" d="M96.9,43.5h.7v4.2h3.2v.6h-3.8v-4.8Z"/>
      <path class="cls-1" d="M102.8,46.4l-2.1-2.8h.8l1.6,2.2,1.6-2.2h.8l-2.1,2.8v2h-.7v-2Z"/>
      <path class="cls-1" d="M110.6,47.1c0-.2,0-.4-.3-.5-.2-.1-.5-.2-.8-.3h-.8c-.4-.2-.8-.3-1-.4-.3-.1-.5-.3-.6-.5-.1-.2-.2-.4-.2-.7,0-.4.2-.7.6-1,.4-.2.9-.4,1.6-.4s1.1,0,1.4.3c.3.2.6.5.7,1h-.6c-.1-.2-.3-.4-.5-.5-.2-.1-.6-.2-1-.2s-.8,0-1.1.2c-.3.1-.4.3-.4.5s0,.4.3.5c.2.1.5.2.9.3h.9c.6.2,1,.4,1.2.6.3.2.4.6.4,1s-.2.8-.6,1-.9.4-1.6.4c-1.5,0-2.3-.5-2.4-1.5h.7c0,.3.2.6.5.7.3.2.7.2,1.2.2s.8,0,1.1-.2c.3-.1.4-.3.4-.6Z"/>
      <path class="cls-1" d="M114.3,44.1h-2v-.6h4.7v.6h-2v4.2h-.7v-4.2Z"/>
      <path class="cls-1" d="M121,43.5h2.3c1.3,0,1.9.5,1.9,1.5s-.7,1.5-2,1.5h-1.5v1.8h-.7v-4.8ZM124.5,45c0-.3,0-.5-.3-.7s-.5-.2-.9-.2h-1.6v1.8h1.6c.4,0,.7,0,.9-.2.2-.2.3-.4.3-.7Z"/>
      <path class="cls-1" d="M126.3,48.4h-.7l2.3-4.8h.7l2.3,4.8h-.7l-.6-1.3h-2.6l-.6,1.3ZM128.3,44.3l-1.1,2.2h2.1l-1.1-2.2Z"/>
      <path class="cls-1" d="M132.4,43.5h2.3c1.2,0,1.9.5,1.9,1.4s-.3,1.1-1,1.3l1.2,2.1h-.8l-1.1-2s0,0-.1,0h-1.7v2h-.7v-4.8ZM135.9,45c0-.3,0-.5-.3-.6-.2-.1-.5-.2-.9-.2h-1.6v1.7h1.5c.8,0,1.2-.3,1.2-.9Z"/>
      <path class="cls-1" d="M139.7,44.1h-2v-.6h4.7v.6h-2v4.2h-.7v-4.2Z"/>
      <path class="cls-1" d="M143.8,43.5h.7l3.2,3.9v-3.9h.7v4.8h-.7l-3.2-3.9v3.9h-.7v-4.8Z"/>
      <path class="cls-1" d="M150.3,43.5h3.8v.6h-3.2v1.5h3v.6h-3v1.6h3.3v.6h-4v-4.8Z"/>
      <path class="cls-1" d="M155.9,43.5h2.3c1.2,0,1.9.5,1.9,1.4s-.3,1.1-1,1.3l1.2,2.1h-.8l-1.1-2s0,0-.1,0h-1.7v2h-.7v-4.8ZM159.3,45c0-.3,0-.5-.3-.6-.2-.1-.5-.2-.9-.2h-1.6v1.7h1.5c.8,0,1.2-.3,1.2-.9Z"/>
      <path class="cls-1" d="M165.3,47.1c0-.2,0-.4-.3-.5-.2-.1-.5-.2-.8-.3h-.8c-.4-.2-.8-.3-1-.4-.3-.1-.5-.3-.6-.5-.1-.2-.2-.4-.2-.7,0-.4.2-.7.6-1,.4-.2.9-.4,1.6-.4s1.1,0,1.4.3c.3.2.6.5.7,1h-.6c-.1-.2-.3-.4-.5-.5-.2-.1-.6-.2-1-.2s-.8,0-1.1.2c-.3.1-.4.3-.4.5s0,.4.3.5c.2.1.5.2.9.3h.9c.6.2,1,.4,1.2.6.3.2.4.6.4,1s-.2.8-.6,1-.9.4-1.6.4c-1.5,0-2.3-.5-2.4-1.5h.7c0,.3.2.6.5.7.3.2.7.2,1.2.2s.8,0,1.1-.2c.3-.1.4-.3.4-.6Z"/>
    </g>
  </g>
  <path class="cls-2" d="M39.4,28.9h0c0-6.8,5.6-12.4,12.4-12.4v-1.1c-6.8,0-12.4-5.6-12.4-12.4h0V0h-1.1v3.1h0c0,6.8-5.6,12.4-12.4,12.4-6.8,0-12.4-5.6-12.4-12.4h0V0s-1.1,0-1.1,0v3.1h0c0,6.8-5.6,12.4-12.4,12.4v1.1c6.8,0,12.4,5.6,12.4,12.4h0v6.1s0,0,0,0c0,6.8-5.6,12.4-12.4,12.4v1.1c6.8,0,12.4,5.6,12.4,12.4h0v3.1h1.1s0-3.1,0-3.1h0c0-3.3,1.3-6.4,3.6-8.8,2.3-2.3,5.4-3.6,8.8-3.6,6.8,0,12.4,5.6,12.4,12.4h0v3.1h1.1v-3.1h0c0-6.8,5.6-12.4,12.4-12.4v-1.1c-6.8,0-12.4-5.6-12.4-12.4h0v-6.1ZM38.3,35.1h0c0,6.8-5.6,12.4-12.4,12.4-6.8,0-12.4-5.6-12.4-12.4h0v-6.1s0,0,0,0c0-3.3,1.3-6.4,3.6-8.8,2.3-2.3,5.4-3.6,8.8-3.6,6.8,0,12.4,5.6,12.4,12.4h0v6.1Z"/>
</svg>