<?xml version="1.0" encoding="UTF-8"?>
<svg id="Layer_1" data-name="Layer 1" xmlns="http://www.w3.org/2000/svg" version="1.1" viewBox="0 0 32 32">
  <defs>
    <style>
      .cls-1 {
        fill: #5dbc5b;
        stroke-width: 0px;
      }
    </style>
  </defs>
  <path class="cls-1" d="M22.8,14.5h0c0-3.4,2.8-6.2,6.2-6.2v-.6c-3.4,0-6.2-2.8-6.2-6.2h0V0h-.6v1.5h0c0,3.4-2.8,6.2-6.2,6.2-3.4,0-6.2-2.8-6.2-6.2h0V0s-.6,0-.6,0v1.5h0c0,3.4-2.8,6.2-6.2,6.2v.6c3.4,0,6.2,2.8,6.2,6.2h0v3.1s0,0,0,0c0,3.4-2.8,6.2-6.2,6.2v.6c3.4,0,6.2,2.8,6.2,6.2h0v1.5h.6s0-1.5,0-1.5h0c0-1.7.6-3.2,1.8-4.4,1.2-1.2,2.7-1.8,4.4-1.8,3.4,0,6.2,2.8,6.2,6.2h0v1.5h.6v-1.5h0c0-3.4,2.8-6.2,6.2-6.2v-.6c-3.4,0-6.2-2.8-6.2-6.2h0v-3.1ZM22.2,17.5h0c0,3.4-2.8,6.2-6.2,6.2-3.4,0-6.2-2.8-6.2-6.2h0v-3.1s0,0,0,0c0-1.7.6-3.2,1.8-4.4,1.2-1.2,2.7-1.8,4.4-1.8,3.4,0,6.2,2.8,6.2,6.2h0v3.1Z"/>
</svg>